<svg xmlns="http://www.w3.org/2000/svg" viewBox="0 0 1200 630" fill="none">
  <rect width="1200" height="630" fill="#000000"/>
  <rect x="0" y="0" width="1200" height="630" fill="url(#gradient)"/>
  <defs>
    <linearGradient id="gradient" x1="0%" y1="0%" x2="100%" y2="100%">
      <stop offset="0%" style="stop-color:#0f2540;stop-opacity:0.8" />
      <stop offset="50%" style="stop-color:#133a63;stop-opacity:0.6" />
      <stop offset="100%" style="stop-color:#0f2540;stop-opacity:0.8" />
    </linearGradient>
  </defs>
  
  <!-- Logo -->
  <g transform="translate(80, 215)">
    <circle cx="100" cy="100" r="95" fill="#000000"/>
    <path d="M100 10 A90 90 0 0 1 100 190 A45 45 0 0 0 100 145 A45 45 0 0 1 100 55 A45 45 0 0 0 100 10 Z" fill="#4ade80"/>
    <path d="M100 190 A90 90 0 0 1 100 10 A45 45 0 0 0 100 55 A45 45 0 0 1 100 145 A45 45 0 0 0 100 190 Z" fill="#4ade80"/>
  </g>
  
  <!-- Text -->
  <text x="300" y="280" font-family="system-ui, -apple-system, sans-serif" font-size="72" font-weight="700" fill="white">
    HyperPool
  </text>
  <text x="300" y="340" font-family="system-ui, -apple-system, sans-serif" font-size="28" fill="#a3a3a3">
    No-Loss Lottery on Hyperliquid
  </text>
  <text x="300" y="390" font-family="system-ui, -apple-system, sans-serif" font-size="24" fill="#4ade80">
    Win with your yield, never lose your deposit
  </text>
  <text x="300" y="440" font-family="system-ui, -apple-system, sans-serif" font-size="20" fill="#666666">
    @hyperpool
  </text>
</svg>